<svg width="31" height="33" viewBox="0 0 31 33" fill="none" xmlns="http://www.w3.org/2000/svg">
<path d="M30.168 28.8244C30.168 30.5841 28.7285 32.0117 26.9541 32.0119H3.38184C1.60681 32.0117 0.167969 30.5841 0.167969 28.8244V10.7619H30.168V28.8244ZM19.7793 14.1653C19.5104 14.0983 19.2384 14.2617 19.1709 14.5305L16.1553 26.591C16.0881 26.8601 16.2516 27.133 16.5205 27.2004C16.7729 27.2635 17.0288 27.1236 17.1152 26.884L17.1309 26.8342L20.1455 14.7746C20.2126 14.5055 20.0484 14.2325 19.7793 14.1653ZM5.29883 14.0119C4.71436 14.0119 4.40362 14.2521 3.74609 14.6643C3.34427 14.9047 3.03418 15.1111 3.03418 15.3C3.03428 15.9696 3.89254 15.3684 4.25781 15.3684C4.53153 15.3684 4.54979 15.4717 4.5498 15.7805C4.5498 16.8624 4.49512 23.1656 4.49512 24.9172C4.4951 25.7068 4.4581 25.7408 4.03809 25.8782C3.38079 25.9811 3.07034 25.9816 3.07031 26.428C3.07031 27.0118 3.43568 27.0119 5.15234 27.0119C6.66833 27.0119 7.03418 27.029 7.03418 26.428C7.03416 25.8441 6.75963 25.8954 6.32129 25.758C5.7737 25.6378 5.90137 25.4313 5.90137 22.9416C5.90137 18.838 6.04781 15.3524 6.04785 14.7678C6.04785 14.287 5.86496 14.012 5.29883 14.0119ZM11.0791 14.0119C10.2881 14.0119 9.70585 14.2811 9.24316 14.8186C8.3477 15.8432 8.03418 17.8251 8.03418 20.4787C8.03421 23.4009 8.39251 25.2312 9.24316 26.2053C9.70585 26.726 10.2878 27.0119 11.0938 27.0119C11.8548 27.0119 12.4071 26.7601 12.8398 26.2395C13.6756 25.2654 14.0341 23.4514 14.0342 20.4787C14.0342 17.8082 13.72 15.7925 12.8096 14.7512C12.3768 14.2643 11.8251 14.012 11.0791 14.0119ZM25.2539 14.0119C24.1723 14.0119 24.2555 14.4061 23.54 16.05C22.4086 18.6015 21.6099 20.5538 21.3604 21.136C21.0942 21.6667 20.9774 21.9062 21.0605 22.7278C21.1271 23.4297 21.26 23.5334 21.6592 23.5334C22.2582 23.5334 23.5396 23.3616 24.1719 23.3616C24.671 23.3616 24.6045 23.5159 24.6045 24.5432C24.6045 25.7247 24.6377 25.8272 24.1885 25.9299C24.0055 26.0155 23.4728 25.9818 23.4727 26.5295C23.4727 27.0775 23.6394 27.009 25.0869 27.009C26.5678 27.009 26.834 26.9748 26.834 26.5295C26.8339 25.9648 26.6013 26.0164 26.2021 25.9651C25.703 25.8623 25.7861 25.7418 25.7861 24.5774C25.7861 23.379 25.7194 23.3791 26.3848 23.3791C26.9837 23.3791 27.0175 23.3789 27.0342 22.7112C27.0342 22.3003 27.0173 22.2312 26.5352 22.2141C25.9029 22.1798 25.9023 22.0088 25.9023 21.4094C25.9024 20.6383 26.0019 15.4174 26.002 14.5774C26.002 14.1494 25.9025 14.012 25.2539 14.0119ZM10.9893 15.1877C11.3325 15.1878 11.646 15.3054 11.8848 15.6077C12.5862 16.3972 12.8545 19.1856 12.8545 21.4866C12.8545 23.5354 12.6158 24.795 12.1084 25.3996C11.8398 25.7187 11.4961 25.8528 11.123 25.8528C10.7501 25.8527 10.407 25.7017 10.1533 25.4162C9.43693 24.6436 9.22754 21.9563 9.22754 19.5041C9.22754 17.489 9.45171 16.263 9.95898 15.675C10.2276 15.3391 10.6012 15.1877 10.9893 15.1877ZM24.6045 15.5188C24.8541 15.5188 24.6876 15.81 24.6377 19.3889C24.6211 22.2827 25.0371 22.2483 23.623 22.2483C21.8766 22.2483 21.7755 22.4027 21.7754 22.1291C21.7754 21.8038 21.9586 21.6662 23.4062 18.2756C24.4544 15.7586 24.3716 15.5188 24.6045 15.5188ZM21.5967 0.0119476C22.7819 0.0120232 23.7393 0.963596 23.7393 2.13695L23.7393 4.26195L26.9541 4.26195C28.7285 4.26217 30.168 5.68916 30.168 7.44945L30.168 9.63695L0.167969 9.63695V7.44945C0.167969 5.68916 1.60681 4.26217 3.38184 4.26195H6.59668L6.59668 2.13695C6.59668 0.963595 7.55405 0.0120222 8.73926 0.0119476C9.92453 0.0119476 10.8818 0.963549 10.8818 2.13695V4.26195H19.4541V2.13695C19.4541 0.963549 20.4114 0.0119476 21.5967 0.0119476Z" fill="#E4B42E"/>
</svg>
